<?xml version="1.0" encoding="utf-8"?>
<!-- Generator: Adobe Illustrator 18.1.0, SVG Export Plug-In . SVG Version: 6.00 Build 0)  -->
<!DOCTYPE svg PUBLIC "-//W3C//DTD SVG 1.1//EN" "http://www.w3.org/Graphics/SVG/1.1/DTD/svg11.dtd">
<svg version="1.1" id="Layer_1" xmlns="http://www.w3.org/2000/svg" xmlns:xlink="http://www.w3.org/1999/xlink" x="0px" y="0px"
	 viewBox="-1073 2634 100 100" enable-background="new -1073 2634 100 100" xml:space="preserve">
<path d="M-1010.1,2727.3c-1.7-1.3-1.9-3.2-1.9-3.2l-0.7-4.2h-20.7l-0.7,4.2c0,0-0.2,1.9-1.9,3.2c-1.7,1.3-3.1,2.4-1.7,2.6
	c1.3,0.2,13.7,0,14.7,0c0.9,0,13.3,0.2,14.7,0C-1007,2729.7-1008.3,2728.6-1010.1,2727.3z"/>
<g>
	<path d="M-1046.3,2694.2c5.5,0,6.2-1.4,8-6.9c3.3-8.8,18.3,2.3,9,6.1C-1038.6,2697.2-1051.9,2694.2-1046.3,2694.2z"/>
	<path d="M-989.6,2636.4c-2.7-2.2-7.1-1.1-9.9,2.4l-28.4,40.3c-2.8,3.5-2.8,2.8-0.1,5c2.7,2.2,2,2.3,4.8-1.2l33.4-36.3
		C-987,2643.1-986.9,2638.5-989.6,2636.4z M-996.9,2641.2c0,0-0.4-0.5-1.8-1.6c2.1-3.4,6.1-2.8,6.1-2.8
		C-996.4,2639.1-996.9,2641.2-996.9,2641.2z"/>
</g>
<path d="M-977,2650h-12.5l-5.5,6h16v48h-88v-48h51.2l4.2-6h-57.4c-2.2,0-4,1.8-4,4v58c0,2.2,1.8,4,4,4h92c2.2,0,4-1.8,4-4v-58
	C-973,2651.8-974.8,2650-977,2650z"/>
</svg>
