<?xml version="1.0" encoding="utf-8"?>
<!-- Generator: Adobe Illustrator 18.1.0, SVG Export Plug-In . SVG Version: 6.00 Build 0)  -->
<!DOCTYPE svg PUBLIC "-//W3C//DTD SVG 1.1//EN" "http://www.w3.org/Graphics/SVG/1.1/DTD/svg11.dtd">
<svg version="1.1" id="Layer_1" xmlns="http://www.w3.org/2000/svg" xmlns:xlink="http://www.w3.org/1999/xlink" x="0px" y="0px"
	 viewBox="0 0 300 300" enable-background="new 0 0 300 300" xml:space="preserve">
<circle fill="#0A8BA1" cx="149.2" cy="151.7" r="131.7"/>
<g>
	<path fill="#FFFFFF" d="M162.2,189c-1.7-1.3-1.9-3.2-1.9-3.2l-0.6-4.2h-20.7l-0.7,4.2c0,0-0.2,1.9-1.9,3.2
		c-1.7,1.3-3.1,2.4-1.7,2.6c1.3,0.2,13.7,0,14.7,0c0.9,0,13.3,0.2,14.7,0C165.3,191.4,163.9,190.3,162.2,189z"/>
	<g>
		<rect x="122" y="145.2" fill="#FFFFFF" width="8" height="15"/>
		<rect x="139" y="138.2" fill="#FFFFFF" width="8" height="22"/>
		<rect x="155" y="145.2" fill="#FFFFFF" width="8" height="15"/>
		<rect x="170" y="138.2" fill="#FFFFFF" width="8" height="22"/>
		<polygon fill="#FFFFFF" points="143.9,129.7 160.1,140.1 182.4,123.9 180.1,120.7 159.9,135.3 144.1,125.1 116.1,139.5 
			117.9,143.1 		"/>
	</g>
	<path fill="#FFFFFF" d="M195.2,111.7h-92c-2.2,0-4,1.8-4,4v58c0,2.2,1.8,4,4,4h92c2.2,0,4-1.8,4-4v-58
		C199.2,113.5,197.4,111.7,195.2,111.7z M193.2,165.7h-88v-48h88V165.7z"/>
</g>
</svg>
