<?xml version="1.0" encoding="utf-8"?>
<!-- Generator: Adobe Illustrator 18.1.0, SVG Export Plug-In . SVG Version: 6.00 Build 0)  -->
<!DOCTYPE svg PUBLIC "-//W3C//DTD SVG 1.1//EN" "http://www.w3.org/Graphics/SVG/1.1/DTD/svg11.dtd">
<svg version="1.1" id="Layer_1" xmlns="http://www.w3.org/2000/svg" xmlns:xlink="http://www.w3.org/1999/xlink" x="0px" y="0px"
	 viewBox="0 0 500 500" enable-background="new 0 0 500 500" xml:space="preserve">
<circle fill="#0A8BA1" cx="248.7" cy="252.8" r="219.5"/>
<g>
	<path fill="#FFFFFF" d="M271.3,323c-2.8-2.2-3.2-5.3-3.2-5.3l-1-7h-34.5l-1.2,7c0,0-0.3,3.2-3.2,5.3c-2.8,2.2-5.2,4-2.8,4.3
		c2.2,0.3,22.8,0,24.5,0c1.5,0,22.2,0.3,24.5,0C276.5,327,274.2,325.2,271.3,323z"/>
	<g>
		<rect x="204.3" y="250" fill="#FFFFFF" width="13.3" height="25"/>
		<rect x="232.7" y="238.3" fill="#FFFFFF" width="13.3" height="36.7"/>
		<rect x="259.3" y="250" fill="#FFFFFF" width="13.3" height="25"/>
		<rect x="284.3" y="238.3" fill="#FFFFFF" width="13.3" height="36.7"/>
		<polygon fill="#FFFFFF" points="240.8,224.2 267.8,241.5 305,214.5 301.2,209.2 267.5,233.5 241.2,216.5 194.5,240.5 197.5,246.5 
					"/>
	</g>
	<path fill="#FFFFFF" d="M326.3,194.2H173c-3.7,0-6.7,3-6.7,6.7v96.7c0,3.7,3,6.7,6.7,6.7h153.3c3.7,0,6.7-3,6.7-6.7v-96.7
		C333,197.2,330,194.2,326.3,194.2z M323,284.2H176.3v-80H323V284.2z"/>
</g>
</svg>
