<?xml version="1.0" encoding="utf-8"?>
<!-- Generator: Adobe Illustrator 18.1.0, SVG Export Plug-In . SVG Version: 6.00 Build 0)  -->
<!DOCTYPE svg PUBLIC "-//W3C//DTD SVG 1.1//EN" "http://www.w3.org/Graphics/SVG/1.1/DTD/svg11.dtd">
<svg version="1.1" id="Layer_1" xmlns="http://www.w3.org/2000/svg" xmlns:xlink="http://www.w3.org/1999/xlink" x="0px" y="0px"
	 viewBox="0 0 1920 1080" enable-background="new 0 0 1920 1080" xml:space="preserve">
<circle fill="#F2C36B" cx="957.2" cy="546" r="474.1"/>
<g>
	<path fill="#1A4266" d="M1036.9,749.4c-8.4-6.6-9.6-15.8-9.6-15.8l-3-20.9H921.3l-3.6,20.9c0,0-0.9,9.6-9.6,15.8
		c-8.4,6.6-15.5,12-8.4,12.8c6.6,0.9,68.1,0,73.2,0c4.5,0,66.3,0.9,73.2,0C1052.5,761.3,1045.6,756,1036.9,749.4z"/>
	<g>
		<rect x="836.7" y="531.3" fill="#ADCCBD" width="39.7" height="74.7"/>
		<rect x="921.6" y="496.3" fill="#ADCCBD" width="39.7" height="109.7"/>
		<rect x="1001.1" y="531.3" fill="#ADCCBD" width="39.7" height="74.7"/>
		<rect x="1075.8" y="496.3" fill="#ADCCBD" width="39.7" height="109.7"/>
		<polygon fill="#82B0D9" points="945.8,454.2 1026.5,505.9 1137.6,425.2 1126.3,409.4 1025.6,482 947,431.2 807.5,502.9 
			816.4,520.8 		"/>
	</g>
	<path fill="#295D68" d="M1201.3,364.6h-458c-11.1,0-20,9-20,20v288.9c0,11.1,9,20,20,20h458c11.1,0,20-9,20-20V384.6
		C1221.3,373.5,1212.3,364.6,1201.3,364.6z M1191.4,633.5H753.1v-239h438.3V633.5z"/>
</g>
<path opacity="0.2" fill="#D9732B" d="M1431.3,546c0,261.9-212.3,474.1-474.1,474.1c-173.4,0-325.1-93.1-407.8-232.1l801.3-506.6
	C1401.6,357,1431.3,448.1,1431.3,546z"/>
</svg>
