<?xml version="1.0" encoding="utf-8"?>
<!-- Generator: Adobe Illustrator 18.1.0, SVG Export Plug-In . SVG Version: 6.00 Build 0)  -->
<!DOCTYPE svg PUBLIC "-//W3C//DTD SVG 1.1//EN" "http://www.w3.org/Graphics/SVG/1.1/DTD/svg11.dtd">
<svg version="1.1" id="Layer_1" xmlns="http://www.w3.org/2000/svg" xmlns:xlink="http://www.w3.org/1999/xlink" x="0px" y="0px"
	 viewBox="0 0 172 166" enable-background="new 0 0 172 166" xml:space="preserve">
<circle fill="#83B0D9" cx="85.5" cy="83.7" r="72.1"/>
<g>
	<g>
		<defs>
			<rect id="SVGID_1_" x="37" y="51.4" width="99.6" height="62.3"/>
		</defs>
		<clipPath id="SVGID_2_">
			<use xlink:href="#SVGID_1_"  overflow="visible"/>
		</clipPath>
		<path clip-path="url(#SVGID_2_)" fill="#FFFFFF" d="M127,60.1h-25v-6.2h25V60.1z M85.4,85.6c1.6,2.5,2.4,5.5,2.4,9.1
			c0,3.7-0.9,7-2.8,9.9c-1.2,1.9-2.6,3.6-4.4,4.9c-2,1.5-4.3,2.6-7,3.1c-2.7,0.6-5.6,0.8-8.8,0.8H37v-62H67
			c7.5,0.1,12.9,2.3,16.1,6.6c1.9,2.6,2.8,5.8,2.8,9.5c0,3.8-1,6.8-2.9,9.1c-1.1,1.3-2.6,2.5-4.7,3.5C81.4,81.2,83.8,83.1,85.4,85.6
			L85.4,85.6z M51.3,75.8h13.1c2.7,0,4.9-0.5,6.6-1.5c1.7-1,2.5-2.8,2.5-5.4c0-2.9-1.1-4.8-3.3-5.7c-1.9-0.6-4.4-1-7.3-1H51.3V75.8z
			 M74.8,93.8c0-3.2-1.3-5.4-3.9-6.6c-1.5-0.7-3.5-1-6.2-1.1H51.3v16.5h13.1c2.7,0,4.8-0.4,6.3-1.1C73.4,100.2,74.8,97.6,74.8,93.8
			L74.8,93.8z M136.3,83.7c0.3,2,0.4,5,0.4,8.8h-32.3c0.2,4.5,1.7,7.6,4.6,9.4c1.8,1.1,3.9,1.7,6.4,1.7c2.6,0,4.8-0.7,6.4-2
			c0.9-0.7,1.7-1.8,2.4-3h11.8c-0.3,2.6-1.7,5.3-4.3,8c-4,4.3-9.5,6.5-16.7,6.5c-5.9,0-11.1-1.8-15.6-5.5c-4.5-3.6-6.8-9.6-6.8-17.8
			c0-7.7,2-13.6,6.1-17.7c4.1-4.1,9.4-6.2,15.9-6.2c3.9,0,7.3,0.7,10.4,2.1c3.1,1.4,5.6,3.6,7.7,6.6
			C134.6,77.1,135.7,80.2,136.3,83.7L136.3,83.7z M124.6,84.8c-0.2-3.1-1.2-5.4-3.1-7c-1.8-1.6-4.1-2.4-6.9-2.4
			c-3,0-5.3,0.9-6.9,2.6c-1.6,1.7-2.7,4-3.1,6.9H124.6z M124.6,84.8"/>
	</g>
</g>
</svg>
