<?xml version="1.0" encoding="utf-8"?>
<!-- Generator: Adobe Illustrator 18.1.0, SVG Export Plug-In . SVG Version: 6.00 Build 0)  -->
<!DOCTYPE svg PUBLIC "-//W3C//DTD SVG 1.1//EN" "http://www.w3.org/Graphics/SVG/1.1/DTD/svg11.dtd">
<svg version="1.1" id="Layer_1" xmlns="http://www.w3.org/2000/svg" xmlns:xlink="http://www.w3.org/1999/xlink" x="0px" y="0px"
	 viewBox="0 0 300 300" enable-background="new 0 0 300 300" xml:space="preserve">
<circle fill="#704286" cx="150.4" cy="151.4" r="131.7"/>
<g>
	<path fill="#FFFFFF" d="M194.7,137.6l-48.3-23.1c-0.6-0.3-1.2,0-1.5,0.5l-10.5,22h5.7l7.7-16.2l41.9,20l-13.1,27.4l-7.4-3.5v14.5
		l4.5,2.2c0.6,0.3,1.2,0,1.5-0.5l20-41.8C195.5,138.6,195.3,137.9,194.7,137.6z"/>
	<path fill="#FFFFFF" d="M164.8,139.7h-53.5c-0.6,0-1.1,0.5-1.1,1.1v46.3c0,0.6,0.5,1.1,1.1,1.1h53.5c0.6,0,1.1-0.5,1.1-1.1v-46.3
		C165.9,140.2,165.4,139.7,164.8,139.7z M161.7,175.2h-3.4c-2-5.1-4.4-12.2-8.1-11.2c-4.3,1.1-6.5,11.2-6.5,11.2s-2.2-11.4-8.3-17.5
		c-6.1-6.1-12,17.5-12,17.5h-8.1v-30.4h46.4V175.2z"/>
</g>
<circle fill="#FFFFFF" cx="123.2" cy="151.1" r="3.6"/>
<path fill="#FFFFFF" d="M147.3,153.6c0.8,0,1.6-0.1,2.2-0.2c0.8,0.3,1.7,0.5,2.8,0.5c2.7,0,4.8-1.3,4.8-2.9c0-1.6-2.1-2.9-4.8-2.9
	c-1,0-1.9,0.2-2.7,0.5c-0.3-0.3-0.7-0.5-1.2-0.5h-0.7c-0.9,0-1.6,0.7-1.7,1.5c-2.1,0.2-3.7,1-3.7,1.9
	C142.3,152.7,144.6,153.6,147.3,153.6z"/>
</svg>
