<?xml version="1.0" encoding="utf-8"?>
<!-- Generator: Adobe Illustrator 18.1.0, SVG Export Plug-In . SVG Version: 6.00 Build 0)  -->
<!DOCTYPE svg PUBLIC "-//W3C//DTD SVG 1.1//EN" "http://www.w3.org/Graphics/SVG/1.1/DTD/svg11.dtd">
<svg version="1.1" id="Layer_1" xmlns="http://www.w3.org/2000/svg" xmlns:xlink="http://www.w3.org/1999/xlink" x="0px" y="0px"
	 viewBox="0 0 1920 1080" enable-background="new 0 0 1920 1080" xml:space="preserve">
<path fill="#295D68" d="M1435.6,545c0,261.9-212.3,474.1-474.1,474.1C788,1019.2,636.3,926,553.7,787
	c-42.1-70.8-66.3-153.6-66.3-242c0-261.8,212.3-474.1,474.1-474.1c163.9,0,308.3,83.1,393.5,209.5
	C1405.8,356,1435.6,447.1,1435.6,545z"/>
<g>
	<path fill="#FF8822" d="M1226.3,461.5l-294.7-141c-3.7-1.8-7.3,0-9.2,3.1l-64.1,134.2h34.8l47-98.8l255.7,122l-79.9,167.2
		l-45.2-21.4v88.5l27.5,13.4c3.7,1.8,7.3,0,9.2-3.1l122-255.1C1231.2,467.6,1230,463.4,1226.3,461.5z"/>
	<path fill="#82B0D9" d="M1043.9,474.4H717.4c-3.7,0-6.7,3.1-6.7,6.7v282.5c0,3.7,3.1,6.7,6.7,6.7h326.4c3.7,0,6.7-3.1,6.7-6.7
		V481.1C1050.6,477.4,1047.5,474.4,1043.9,474.4z M1025,691h-20.7c-12.2-31.1-26.8-74.4-49.4-68.3c-26.2,6.7-39.7,68.3-39.7,68.3
		s-13.4-69.6-50.6-106.8C827.3,547,791.3,691,791.3,691h-49.4V505.5H1025V691z"/>
</g>
<circle fill="#FFFFFF" cx="863.5" cy="544" r="13"/>
<path fill="#FFFFFF" d="M950.3,553c2.9,0,5.8-0.4,7.9-0.7c2.9,1.1,6.1,1.8,10.1,1.8c9.7,0,17.3-4.7,17.3-10.4
	c0-5.8-7.6-10.4-17.3-10.4c-3.6,0-6.8,0.7-9.7,1.8c-1.1-1.1-2.5-1.8-4.3-1.8h-2.5c-3.2,0-5.8,2.5-6.1,5.4
	c-7.6,0.7-13.3,3.6-13.3,6.8C932.3,549.7,940.6,553,950.3,553z"/>
<path opacity="0.17" fill="#1A4266" d="M1435.6,545c0,261.9-212.3,474.1-474.1,474.1C788,1019.2,636.3,926,553.7,787l801.3-506.6
	C1405.8,356,1435.6,447.1,1435.6,545z"/>
</svg>
