<?xml version="1.0" encoding="utf-8"?>
<!-- Generator: Adobe Illustrator 18.1.0, SVG Export Plug-In . SVG Version: 6.00 Build 0)  -->
<!DOCTYPE svg PUBLIC "-//W3C//DTD SVG 1.1//EN" "http://www.w3.org/Graphics/SVG/1.1/DTD/svg11.dtd">
<svg version="1.1" id="Layer_1" xmlns="http://www.w3.org/2000/svg" xmlns:xlink="http://www.w3.org/1999/xlink" x="0px" y="0px"
	 viewBox="0 0 400 400" enable-background="new 0 0 400 400" xml:space="preserve">
<circle fill="#704286" cx="200.5" cy="201.9" r="175.6"/>
<g>
	<path fill="#FFFFFF" d="M259.6,183.5l-64.4-30.8c-0.8-0.4-1.6,0-2,0.7l-14,29.3h7.6l10.3-21.6l55.9,26.7l-17.5,36.5l-9.9-4.7v19.3
		l6,2.9c0.8,0.4,1.6,0,2-0.7l26.7-55.7C260.7,184.8,260.4,183.9,259.6,183.5z"/>
	<path fill="#FFFFFF" d="M219.7,186.3h-71.3c-0.8,0-1.5,0.7-1.5,1.5v61.7c0,0.8,0.7,1.5,1.5,1.5h71.3c0.8,0,1.5-0.7,1.5-1.5v-61.7
		C221.2,186.9,220.5,186.3,219.7,186.3z M215.6,233.6h-4.5c-2.7-6.8-5.9-16.3-10.8-14.9c-5.7,1.5-8.7,14.9-8.7,14.9
		s-2.9-15.2-11.1-23.3c-8.1-8.1-16,23.3-16,23.3h-10.8v-40.5h61.9V233.6z"/>
</g>
<circle fill="#FFFFFF" cx="164.3" cy="201.5" r="4.8"/>
<path fill="#FFFFFF" d="M196.4,204.8c1.1,0,2.1-0.1,2.9-0.3c1.1,0.4,2.3,0.7,3.7,0.7c3.6,0,6.4-1.7,6.4-3.9c0-2.1-2.8-3.9-6.4-3.9
	c-1.3,0-2.5,0.3-3.6,0.7c-0.4-0.4-0.9-0.7-1.6-0.7h-0.9c-1.2,0-2.1,0.9-2.3,2c-2.8,0.3-4.9,1.3-4.9,2.5
	C189.7,203.6,192.8,204.8,196.4,204.8z"/>
</svg>
