<?xml version="1.0" encoding="utf-8"?>
<!-- Generator: Adobe Illustrator 18.1.0, SVG Export Plug-In . SVG Version: 6.00 Build 0)  -->
<!DOCTYPE svg PUBLIC "-//W3C//DTD SVG 1.1//EN" "http://www.w3.org/Graphics/SVG/1.1/DTD/svg11.dtd">
<svg version="1.1" id="Layer_1" xmlns="http://www.w3.org/2000/svg" xmlns:xlink="http://www.w3.org/1999/xlink" x="0px" y="0px"
	 viewBox="0 0 1920 1080" enable-background="new 0 0 1920 1080" xml:space="preserve">
<circle fill="#F2695C" cx="961.4" cy="545" r="474.1"/>
<g id="news">
	<path fill="#295D68" d="M1132.7,356.6H838.5c-22.4,0-40.2,17.8-40.2,40.2v27h-13.2c-22.4,0-40.2,17.8-40.2,40.2v267.8
		c0,29.3,24.1,53.4,53.4,53.4h321.2c29.3,0,53.4-24.1,53.4-53.4V397.4C1172.4,375,1154.6,356.6,1132.7,356.6z M1145.9,731.3
		c0,14.9-12.1,27-27,27H797.8c-14.9,0-27-12.1-27-27V463.5c0-7.5,5.7-13.2,13.2-13.2h13.2v267.8c0,7.5,5.7,13.2,13.2,13.2
		c7.5,0,13.2-5.7,13.2-13.2V396.9c0-7.5,5.7-13.2,13.2-13.2h295.9c7.5,0,13.2,5.7,13.2,13.2V731.3z"/>
	<path fill="#ADCCBD" d="M1005.2,530.7H1112c3.4,0,6.9-2.9,6.9-6.9s-2.9-6.9-6.9-6.9h-106.9c-3.4,0-6.9,2.9-6.9,6.9
		S1001.7,530.7,1005.2,530.7z"/>
	<path fill="#ADCCBD" d="M1005.2,490.5H1112c3.4,0,6.9-2.9,6.9-6.9c0-4-2.9-6.9-6.9-6.9h-106.9c-3.4,0-6.9,2.9-6.9,6.9
		C998.3,487.6,1001.7,490.5,1005.2,490.5z"/>
	<path fill="#ADCCBD" d="M1005.2,450.3H1112c3.4,0,6.9-2.9,6.9-6.9c0-4-2.9-6.9-6.9-6.9h-106.9c-3.4,0-6.9,2.9-6.9,6.9
		C998.3,447.4,1001.7,450.3,1005.2,450.3z"/>
	<path fill="#ADCCBD" d="M965.5,718.1H858.7c-3.4,0-6.9,2.9-6.9,6.9c0,3.4,2.9,6.9,6.9,6.9h106.9c3.4,0,6.9-2.9,6.9-6.9
		C971.8,720.9,969,718.1,965.5,718.1z"/>
	<path fill="#ADCCBD" d="M965.5,677.8H858.7c-3.4,0-6.9,2.9-6.9,6.9c0,3.4,2.9,6.9,6.9,6.9h106.9c3.4,0,6.9-2.9,6.9-6.9
		C971.8,680.7,969,677.8,965.5,677.8z"/>
	<path fill="#ADCCBD" d="M965.5,637.6H858.7c-3.4,0-6.9,2.9-6.9,6.9c0,3.4,2.9,6.9,6.9,6.9h106.9c3.4,0,6.9-2.9,6.9-6.9
		C971.8,641.1,969,637.6,965.5,637.6z"/>
	<path fill="#ADCCBD" d="M1112.6,718.1h-106.9c-3.4,0-6.9,2.9-6.9,6.9c0,3.4,2.9,6.9,6.9,6.9h106.9c3.4,0,6.9-2.9,6.9-6.9
		C1118.9,720.9,1116.1,718.1,1112.6,718.1z"/>
	<path fill="#ADCCBD" d="M1112.6,677.8h-106.9c-3.4,0-6.9,2.9-6.9,6.9c0,3.4,2.9,6.9,6.9,6.9h106.9c3.4,0,6.9-2.9,6.9-6.9
		C1118.9,680.7,1116.1,677.8,1112.6,677.8z"/>
	<path fill="#ADCCBD" d="M1112.6,637.6h-106.9c-3.4,0-6.9,2.9-6.9,6.9c0,3.4,2.9,6.9,6.9,6.9h106.9c3.4,0,6.9-2.9,6.9-6.9
		C1118.9,641.1,1116.1,637.6,1112.6,637.6z"/>
	<path fill="#ADCCBD" d="M1112.6,557.7h-254c-3.4,0-6.9,2.9-6.9,6.9c0,3.4,2.9,6.9,6.9,6.9h254c3.4,0,6.9-2.9,6.9-6.9
		C1118.9,560.6,1116.1,557.7,1112.6,557.7z"/>
	<path fill="#ADCCBD" d="M1112.6,598h-254c-3.4,0-6.9,2.9-6.9,6.9c0,3.4,2.9,6.9,6.9,6.9h254c3.4,0,6.9-2.9,6.9-6.9
		C1118.9,600.8,1116.1,598,1112.6,598z"/>
	<path fill="#AFE89A" d="M865,530.7h93.7c7.5,0,13.2-5.7,13.2-13.2v-93.7c0-7.5-5.7-13.2-13.2-13.2H865c-7.5,0-13.2,5.7-13.2,13.2
		v93.7C851.8,525,857.5,530.7,865,530.7z M878.2,437.1h66.7v66.7h-66.7V437.1z"/>
</g>
<path opacity="0.2" fill="#E80040" d="M1435.6,546.6c0,261.9-212.3,474.1-474.1,474.1c-173.4,0-325.1-93.1-407.8-232.1l801.3-506.6
	C1405.8,357.6,1435.6,448.7,1435.6,546.6z"/>
</svg>
