<?xml version="1.0" encoding="utf-8"?>
<!-- Generator: Adobe Illustrator 18.1.0, SVG Export Plug-In . SVG Version: 6.00 Build 0)  -->
<!DOCTYPE svg PUBLIC "-//W3C//DTD SVG 1.1//EN" "http://www.w3.org/Graphics/SVG/1.1/DTD/svg11.dtd">
<svg version="1.1" id="Layer_1" xmlns="http://www.w3.org/2000/svg" xmlns:xlink="http://www.w3.org/1999/xlink" x="0px" y="0px"
	 viewBox="0 0 300 300" enable-background="new 0 0 300 300" xml:space="preserve">
<circle fill="#DF4346" cx="150.4" cy="151.4" r="131.7"/>
<circle fill="#FFFFFF" cx="123.2" cy="151.1" r="3.6"/>
<path fill="#FFFFFF" d="M147.3,153.6c0.8,0,1.6-0.1,2.2-0.2c0.8,0.3,1.7,0.5,2.8,0.5c2.7,0,4.8-1.3,4.8-2.9c0-1.6-2.1-2.9-4.8-2.9
	c-1,0-1.9,0.2-2.7,0.5c-0.3-0.3-0.7-0.5-1.2-0.5h-0.7c-0.9,0-1.6,0.7-1.7,1.5c-2.1,0.2-3.7,1-3.7,1.9
	C142.3,152.7,144.6,153.6,147.3,153.6z"/>
<g id="news">
	<path fill="#FFFFFF" d="M184,116.4h-51.2c-3.9,0-7,3.1-7,7v4.7h-2.3c-3.9,0-7,3.1-7,7v46.6c0,5.1,4.2,9.3,9.3,9.3h55.9
		c5.1,0,9.3-4.2,9.3-9.3v-58.2C190.9,119.6,187.8,116.4,184,116.4z M186.3,181.6c0,2.6-2.1,4.7-4.7,4.7h-55.9
		c-2.6,0-4.7-2.1-4.7-4.7v-46.6c0-1.3,1-2.3,2.3-2.3h2.3v46.6c0,1.3,1,2.3,2.3,2.3c1.3,0,2.3-1,2.3-2.3v-55.9c0-1.3,1-2.3,2.3-2.3
		H184c1.3,0,2.3,1,2.3,2.3V181.6z"/>
	<path fill="#FFFFFF" d="M161.8,146.7h18.6c0.6,0,1.2-0.5,1.2-1.2s-0.5-1.2-1.2-1.2h-18.6c-0.6,0-1.2,0.5-1.2,1.2
		S161.2,146.7,161.8,146.7z"/>
	<path fill="#FFFFFF" d="M161.8,139.7h18.6c0.6,0,1.2-0.5,1.2-1.2s-0.5-1.2-1.2-1.2h-18.6c-0.6,0-1.2,0.5-1.2,1.2
		S161.2,139.7,161.8,139.7z"/>
	<path fill="#FFFFFF" d="M161.8,132.7h18.6c0.6,0,1.2-0.5,1.2-1.2s-0.5-1.2-1.2-1.2h-18.6c-0.6,0-1.2,0.5-1.2,1.2
		S161.2,132.7,161.8,132.7z"/>
	<path fill="#FFFFFF" d="M154.9,179.3h-18.6c-0.6,0-1.2,0.5-1.2,1.2c0,0.6,0.5,1.2,1.2,1.2h18.6c0.6,0,1.2-0.5,1.2-1.2
		C156,179.8,155.5,179.3,154.9,179.3z"/>
	<path fill="#FFFFFF" d="M154.9,172.3h-18.6c-0.6,0-1.2,0.5-1.2,1.2c0,0.6,0.5,1.2,1.2,1.2h18.6c0.6,0,1.2-0.5,1.2-1.2
		C156,172.8,155.5,172.3,154.9,172.3z"/>
	<path fill="#FFFFFF" d="M154.9,165.3h-18.6c-0.6,0-1.2,0.5-1.2,1.2c0,0.6,0.5,1.2,1.2,1.2h18.6c0.6,0,1.2-0.5,1.2-1.2
		C156,165.9,155.5,165.3,154.9,165.3z"/>
	<path fill="#FFFFFF" d="M180.5,179.3h-18.6c-0.6,0-1.2,0.5-1.2,1.2c0,0.6,0.5,1.2,1.2,1.2h18.6c0.6,0,1.2-0.5,1.2-1.2
		C181.6,179.8,181.1,179.3,180.5,179.3z"/>
	<path fill="#FFFFFF" d="M180.5,172.3h-18.6c-0.6,0-1.2,0.5-1.2,1.2c0,0.6,0.5,1.2,1.2,1.2h18.6c0.6,0,1.2-0.5,1.2-1.2
		C181.6,172.8,181.1,172.3,180.5,172.3z"/>
	<path fill="#FFFFFF" d="M180.5,165.3h-18.6c-0.6,0-1.2,0.5-1.2,1.2c0,0.6,0.5,1.2,1.2,1.2h18.6c0.6,0,1.2-0.5,1.2-1.2
		C181.6,165.9,181.1,165.3,180.5,165.3z"/>
	<path fill="#FFFFFF" d="M180.5,151.4h-44.2c-0.6,0-1.2,0.5-1.2,1.2c0,0.6,0.5,1.2,1.2,1.2h44.2c0.6,0,1.2-0.5,1.2-1.2
		C181.6,151.9,181.1,151.4,180.5,151.4z"/>
	<path fill="#FFFFFF" d="M180.5,158.4h-44.2c-0.6,0-1.2,0.5-1.2,1.2c0,0.6,0.5,1.2,1.2,1.2h44.2c0.6,0,1.2-0.5,1.2-1.2
		C181.6,158.9,181.1,158.4,180.5,158.4z"/>
	<path fill="#FFFFFF" d="M137.4,146.7h16.3c1.3,0,2.3-1,2.3-2.3v-16.3c0-1.3-1-2.3-2.3-2.3h-16.3c-1.3,0-2.3,1-2.3,2.3v16.3
		C135.1,145.7,136.1,146.7,137.4,146.7z M139.7,130.4h11.6V142h-11.6V130.4z"/>
</g>
</svg>
