<?xml version="1.0" encoding="utf-8"?>
<!-- Generator: Adobe Illustrator 18.1.0, SVG Export Plug-In . SVG Version: 6.00 Build 0)  -->
<!DOCTYPE svg PUBLIC "-//W3C//DTD SVG 1.1//EN" "http://www.w3.org/Graphics/SVG/1.1/DTD/svg11.dtd">
<svg version="1.1" id="Layer_1" xmlns="http://www.w3.org/2000/svg" xmlns:xlink="http://www.w3.org/1999/xlink" x="0px" y="0px"
	 viewBox="0 0 172 166" enable-background="new 0 0 172 166" xml:space="preserve">
<circle fill="#ADCBBD" cx="85.5" cy="83.7" r="72.1"/>
<g>
	<path id="LinkedIn_1_" fill="#FFFFFF" d="M133.3,88.3v31.8h-18.4V90.4c0-7.5-2.7-12.5-9.3-12.5c-5.1,0-8.1,3.4-9.5,6.7
		c-0.5,1.2-0.6,2.8-0.6,4.5v31H77.1c0,0,0.2-50.2,0-55.4h18.4v7.9c0,0.1-0.1,0.1-0.1,0.2h0.1v-0.2c2.4-3.8,6.8-9.2,16.6-9.2
		C124.2,63.3,133.3,71.3,133.3,88.3z M57.8,37.9c-6.3,0-10.4,4.1-10.4,9.6c0,5.3,4,9.6,10.2,9.6h0.1c6.4,0,10.4-4.3,10.4-9.6
		C68,42,64.1,37.9,57.8,37.9z M48.4,120.1h18.4V64.6H48.4V120.1z"/>
</g>
</svg>
