<?xml version="1.0" encoding="utf-8"?>
<!-- Generator: Adobe Illustrator 18.1.0, SVG Export Plug-In . SVG Version: 6.00 Build 0)  -->
<!DOCTYPE svg PUBLIC "-//W3C//DTD SVG 1.1//EN" "http://www.w3.org/Graphics/SVG/1.1/DTD/svg11.dtd">
<svg version="1.1" id="Capa_1" xmlns="http://www.w3.org/2000/svg" xmlns:xlink="http://www.w3.org/1999/xlink" x="0px" y="0px"
	 viewBox="0 0 1920 1314.6" enable-background="new 0 0 1920 1314.6" xml:space="preserve">
<g id="Node">
	<g>
		<path fill="#F2695C" d="M1368,920c-23.6,0-47.3,6.7-67.5,20.3l-219.4-219.4c13.5-20.3,20.2-43.9,20.2-67.5
			c0-47.2-23.6-87.8-60.8-114.7l54-158.6c3.4,0,6.7,0,10.1,0c74.2,0,135-60.8,135-135s-60.8-135-135-135s-135,60.8-135,135
			c0,47.2,23.6,87.8,60.8,114.7l-54,158.6c-3.4,0-6.7,0-10.1,0c-74.2,0-135,60.8-135,135c0,16.9,3.4,30.4,6.7,43.9L669.4,808.6
			c-23.6-33.8-64.1-54-108-54c-74.2,0-135,60.8-135,135s60.8,135,135,135s135-60.8,135-135c0-3.4,0-10.1,0-13.5l182.3-121.5
			c23.6,20.3,54,33.8,91.1,33.8c23.6,0,47.3-6.7,67.5-20.3l219.4,219.4c-13.5,20.3-20.2,43.9-20.2,67.5c0,74.2,60.8,135,135,135
			s135-60.8,135-135C1506.4,980.8,1442.2,920,1368,920z M558,953.8c-37.1,0-67.5-30.4-67.5-67.5s30.4-67.5,67.5-67.5
			s67.5,30.4,67.5,67.5S595.1,953.8,558,953.8z M963,717.5c-37.1,0-67.5-30.4-67.5-67.5s30.4-67.5,67.5-67.5s67.5,30.4,67.5,67.5
			S1000.1,717.5,963,717.5z M1030.5,245c0-37.1,30.4-67.5,67.5-67.5c37.1,0,67.5,30.4,67.5,67.5s-30.4,67.5-67.5,67.5
			C1060.9,312.5,1030.5,282.1,1030.5,245z M1368,1122.5c-37.1,0-67.5-30.4-67.5-67.5c0-37.1,30.4-67.5,67.5-67.5
			c37.1,0,67.5,30.4,67.5,67.5C1435.5,1092.1,1405.1,1122.5,1368,1122.5z"/>
	</g>
</g>
</svg>
