<?xml version="1.0" encoding="utf-8"?>
<!-- Generator: Adobe Illustrator 18.1.0, SVG Export Plug-In . SVG Version: 6.00 Build 0)  -->
<!DOCTYPE svg PUBLIC "-//W3C//DTD SVG 1.1//EN" "http://www.w3.org/Graphics/SVG/1.1/DTD/svg11.dtd">
<svg version="1.1" id="Capa_1" xmlns="http://www.w3.org/2000/svg" xmlns:xlink="http://www.w3.org/1999/xlink" x="0px" y="0px"
	 viewBox="-135 182 32 32" enable-background="new -135 182 32 32" xml:space="preserve">
<g id="Node">
	<g>
		<path fill="#FFFFFF" d="M-107,206c-0.7,0-1.4,0.2-2,0.6l-6.5-6.5c0.4-0.6,0.6-1.3,0.6-2c0-1.4-0.7-2.6-1.8-3.4l1.6-4.7
			c0.1,0,0.2,0,0.3,0c2.2,0,4-1.8,4-4c0-2.2-1.8-4-4-4s-4,1.8-4,4c0,1.4,0.7,2.6,1.8,3.4l-1.6,4.7c-0.1,0-0.2,0-0.3,0
			c-2.2,0-4,1.8-4,4c0,0.5,0.1,0.9,0.2,1.3l-5,3.3c-0.7-1-1.9-1.6-3.2-1.6c-2.2,0-4,1.8-4,4s1.8,4,4,4s4-1.8,4-4c0-0.1,0-0.3,0-0.4
			l5.4-3.6c0.7,0.6,1.6,1,2.7,1c0.7,0,1.4-0.2,2-0.6l6.5,6.5c-0.4,0.6-0.6,1.3-0.6,2c0,2.2,1.8,4,4,4s4-1.8,4-4S-104.8,206-107,206z
			 M-131,207c-1.1,0-2-0.9-2-2c0-1.1,0.9-2,2-2s2,0.9,2,2C-129,206.1-129.9,207-131,207z M-119,200c-1.1,0-2-0.9-2-2
			c0-1.1,0.9-2,2-2c1.1,0,2,0.9,2,2C-117,199.1-117.9,200-119,200z M-117,186c0-1.1,0.9-2,2-2s2,0.9,2,2c0,1.1-0.9,2-2,2
			S-117,187.1-117,186z M-107,212c-1.1,0-2-0.9-2-2c0-1.1,0.9-2,2-2s2,0.9,2,2C-105,211.1-105.9,212-107,212z"/>
	</g>
</g>
</svg>
