<?xml version="1.0" encoding="utf-8"?>
<!-- Generator: Adobe Illustrator 18.1.0, SVG Export Plug-In . SVG Version: 6.00 Build 0)  -->
<!DOCTYPE svg PUBLIC "-//W3C//DTD SVG 1.1//EN" "http://www.w3.org/Graphics/SVG/1.1/DTD/svg11.dtd">
<svg version="1.1" id="Layer_1" xmlns="http://www.w3.org/2000/svg" xmlns:xlink="http://www.w3.org/1999/xlink" x="0px" y="0px"
	 viewBox="0 0 172 166" enable-background="new 0 0 172 166" xml:space="preserve">
<circle fill="#F1C26A" cx="85.5" cy="83.7" r="72.1"/>
<g>
	<path fill="#FFFFFF" d="M125.5,64.4c-2.9,1.2-6,2-9.3,2.4c3.3-1.9,5.9-4.8,7.1-8.3c-3.1,1.7-6.6,3-10.3,3.7
		c-3-2.9-7.2-4.8-11.8-4.8c-9,0-16.2,6.7-16.2,15.1c0,1.2,0.1,2.3,0.4,3.4C71.9,75.2,60,69.2,52,60.1c-1.4,2.2-2.2,4.8-2.2,7.6
		c0,5.2,2.9,9.8,7.2,12.5c-2.7-0.1-5.2-0.8-7.3-1.9v0.2c0,7.3,5.6,13.4,13,14.8c-1.4,0.3-2.8,0.5-4.3,0.5c-1,0-2.1-0.1-3.1-0.3
		c2.1,6,8,10.3,15.1,10.5c-5.5,4-12.5,6.4-20.1,6.4c-1.3,0-2.6-0.1-3.9-0.2c7.2,4.3,15.7,6.8,24.8,6.8c29.8,0,46.1-23,46.1-42.9
		l-0.1-2C120.6,70.1,123.3,67.4,125.5,64.4z"/>
</g>
</svg>
