<?xml version="1.0" encoding="utf-8"?>
<!-- Generator: Adobe Illustrator 18.1.0, SVG Export Plug-In . SVG Version: 6.00 Build 0)  -->
<!DOCTYPE svg PUBLIC "-//W3C//DTD SVG 1.1//EN" "http://www.w3.org/Graphics/SVG/1.1/DTD/svg11.dtd">
<svg version="1.1" id="Layer_1" xmlns="http://www.w3.org/2000/svg" xmlns:xlink="http://www.w3.org/1999/xlink" x="0px" y="0px"
	 viewBox="0 0 172 166" enable-background="new 0 0 172 166" xml:space="preserve">
<circle fill="#F1695C" cx="85.5" cy="83.7" r="72.1"/>
<g>
	<path fill="#FFFFFF" d="M110.4,54.8c7.5,0.2,11.3,4.5,11.3,12.8c0,0.5,0,1.1,0,1.7c-0.3,7.1-5.6,16.7-15.8,28.9
		C95.3,111,86.4,117.4,79,117.5c-4.6,0-8.4-3.9-11.4-11.8L64.4,95l-3.2-10.7c-2.3-7.8-4.8-11.7-7.5-11.7c-0.6,0-2.6,1.1-6.1,3.4
		L44,71.6l5.7-4.8l5.6-4.7c5-4,8.9-6.2,11.5-6.6c0.4,0,0.7,0,1.1,0c5.4,0,8.8,3.9,10.1,11.7c0.7,4.4,1.3,8,1.8,10.8
		c0.5,2.8,0.9,4.7,1.2,5.8c1.8,7.3,3.7,11,5.8,11.1c1.6,0,4-2.4,7.3-7.2c3.2-4.9,5-8.6,5.2-10.9c0.1-0.5,0.1-0.9,0.1-1.3
		c0-3.2-1.8-4.8-5.3-4.8c-1.8,0-3.7,0.4-5.7,1.1c3.7-11.3,10.7-16.9,21.1-16.9C109.8,54.8,110.1,54.8,110.4,54.8z"/>
	<g>
	</g>
	<g>
	</g>
	<g>
	</g>
	<g>
	</g>
	<g>
	</g>
	<g>
	</g>
	<g>
	</g>
	<g>
	</g>
	<g>
	</g>
	<g>
	</g>
	<g>
	</g>
	<g>
	</g>
	<g>
	</g>
	<g>
	</g>
	<g>
	</g>
</g>
</svg>
